HIERARCHY
ROOT mixamorig:Hips
{
	OFFSET 0.000000 102.625267 -0.521241
	CHANNELS 6 Xposition Yposition Zposition Xrotation Yrotation Zrotation
	JOINT mixamorig:Spine
	{
		OFFSET 0.000000 5.645721 -0.031929
		CHANNELS 3 Xrotation Yrotation Zrotation
		JOINT mixamorig:Spine1
		{
			OFFSET 0.000000 6.586685 -0.037251
			CHANNELS 3 Xrotation Yrotation Zrotation
			JOINT mixamorig:Spine2
			{
				OFFSET 0.000000 7.527618 -0.042572
				CHANNELS 3 Xrotation Yrotation Zrotation
				JOINT mixamorig:Neck
				{
					OFFSET 0.000000 8.468590 -0.047894
					CHANNELS 3 Xrotation Yrotation Zrotation
					JOINT mixamorig:Head
					{
						OFFSET 0.000000 5.998901 -1.158958
						CHANNELS 3 Xrotation Yrotation Zrotation
						JOINT mixamorig:HeadTop_End
						{
							OFFSET 0.000000 21.748810 -4.201760
							CHANNELS 3 Xrotation Yrotation Zrotation
							End Site
							{
								OFFSET 0.000000 22.150970 0.000000
							}
						}
					}
				}
				JOINT mixamorig:LeftShoulder
				{
					OFFSET 3.414614 7.343132 -0.058928
					CHANNELS 3 Xrotation Yrotation Zrotation
					JOINT mixamorig:LeftArm
					{
						OFFSET 6.829548 -2.246910 -0.022071
						CHANNELS 3 Xrotation Yrotation Zrotation
						JOINT mixamorig:LeftForeArm
						{
							OFFSET 24.198503 -0.424179 0.257802
							CHANNELS 3 Xrotation Yrotation Zrotation
							JOINT mixamorig:LeftHand
							{
								OFFSET 21.584717 -0.002335 0.669575
								CHANNELS 3 Xrotation Yrotation Zrotation
								JOINT mixamorig:LeftHandThumb1
								{
									OFFSET 2.193897 -1.259628 1.956942
									CHANNELS 3 Xrotation Yrotation Zrotation
									JOINT mixamorig:LeftHandThumb2
									{
										OFFSET 1.755203 -1.007660 1.565605
										CHANNELS 3 Xrotation Yrotation Zrotation
										JOINT mixamorig:LeftHandThumb3
										{
											OFFSET 2.535126 -0.998764 1.490660
											CHANNELS 3 Xrotation Yrotation Zrotation
											JOINT mixamorig:LeftHandThumb4
											{
												OFFSET 2.398251 -0.721657 1.023775
												CHANNELS 3 Xrotation Yrotation Zrotation
												End Site
												{
													OFFSET 2.205696 -0.773872 1.362551
												}
											}
										}
									}
								}
								JOINT mixamorig:LeftHandIndex1
								{
									OFFSET 7.166248 -0.069405 2.369028
									CHANNELS 3 Xrotation Yrotation Zrotation
									JOINT mixamorig:LeftHandIndex2
									{
										OFFSET 2.989986 -0.015724 0.245918
										CHANNELS 3 Xrotation Yrotation Zrotation
										JOINT mixamorig:LeftHandIndex3
										{
											OFFSET 2.739197 -0.058952 0.219132
											CHANNELS 3 Xrotation Yrotation Zrotation
											JOINT mixamorig:LeftHandIndex4
											{
												OFFSET 2.326500 -0.032570 0.188458
												CHANNELS 3 Xrotation Yrotation Zrotation
												End Site
												{
													OFFSET 2.326485 -0.032578 0.188548
												}
											}
										}
									}
								}
								JOINT mixamorig:LeftHandMiddle1
								{
									OFFSET 7.394897 0.286369 0.654762
									CHANNELS 3 Xrotation Yrotation Zrotation
									JOINT mixamorig:LeftHandMiddle2
									{
										OFFSET 3.376106 0.152466 -0.003692
										CHANNELS 3 Xrotation Yrotation Zrotation
										JOINT mixamorig:LeftHandMiddle3
										{
											OFFSET 3.185104 -0.185410 -0.047914
											CHANNELS 3 Xrotation Yrotation Zrotation
											JOINT mixamorig:LeftHandMiddle4
											{
												OFFSET 2.742905 0.223846 0.010354
												CHANNELS 3 Xrotation Yrotation Zrotation
												End Site
												{
													OFFSET 2.742889 0.224251 0.006757
												}
											}
										}
									}
								}
								JOINT mixamorig:LeftHandRing1
								{
									OFFSET 7.508747 0.282753 -1.072900
									CHANNELS 3 Xrotation Yrotation Zrotation
									JOINT mixamorig:LeftHandRing2
									{
										OFFSET 2.821857 0.317802 -0.177266
										CHANNELS 3 Xrotation Yrotation Zrotation
										JOINT mixamorig:LeftHandRing3
										{
											OFFSET 2.672325 0.088310 -0.196165
											CHANNELS 3 Xrotation Yrotation Zrotation
											JOINT mixamorig:LeftHandRing4
											{
												OFFSET 2.272652 -0.053627 -0.183955
												CHANNELS 3 Xrotation Yrotation Zrotation
												End Site
												{
													OFFSET 2.272919 -0.054016 -0.180438
												}
											}
										}
									}
								}
								JOINT mixamorig:LeftHandPinky1
								{
									OFFSET 7.285820 0.522377 -2.660948
									CHANNELS 3 Xrotation Yrotation Zrotation
									JOINT mixamorig:LeftHandPinky2
									{
										OFFSET 2.466278 0.082008 -0.249570
										CHANNELS 3 Xrotation Yrotation Zrotation
										JOINT mixamorig:LeftHandPinky3
										{
											OFFSET 1.940475 0.021858 -0.202004
											CHANNELS 3 Xrotation Yrotation Zrotation
											JOINT mixamorig:LeftHandPinky4
											{
												OFFSET 1.645287 0.153595 -0.153405
												CHANNELS 3 Xrotation Yrotation Zrotation
												End Site
												{
													OFFSET 1.645088 0.153801 -0.155289
												}
											}
										}
									}
								}
							}
						}
					}
				}
				JOINT mixamorig:RightShoulder
				{
					OFFSET -3.414604 7.343132 -0.036860
					CHANNELS 3 Xrotation Yrotation Zrotation
					JOINT mixamorig:RightArm
					{
						OFFSET -6.829551 -2.246986 0.022068
						CHANNELS 3 Xrotation Yrotation Zrotation
						JOINT mixamorig:RightForeArm
						{
							OFFSET -24.198494 -0.424141 0.158696
							CHANNELS 3 Xrotation Yrotation Zrotation
							JOINT mixamorig:RightHand
							{
								OFFSET -21.584698 -0.002243 0.686977
								CHANNELS 3 Xrotation Yrotation Zrotation
								JOINT mixamorig:RightHandThumb1
								{
									OFFSET -2.242882 -1.296806 1.978855
									CHANNELS 3 Xrotation Yrotation Zrotation
									JOINT mixamorig:RightHandThumb2
									{
										OFFSET -1.794239 -1.037361 1.583064
										CHANNELS 3 Xrotation Yrotation Zrotation
										JOINT mixamorig:RightHandThumb3
										{
											OFFSET -2.504150 -0.962166 1.471556
											CHANNELS 3 Xrotation Yrotation Zrotation
											JOINT mixamorig:RightHandThumb4
											{
												OFFSET -2.346046 -0.743172 0.992235
												CHANNELS 3 Xrotation Yrotation Zrotation
												End Site
												{
													OFFSET -2.157112 -0.792709 1.326359
												}
											}
										}
									}
								}
								JOINT mixamorig:RightHandIndex1
								{
									OFFSET -7.174488 -0.001839 2.366265
									CHANNELS 3 Xrotation Yrotation Zrotation
									JOINT mixamorig:RightHandIndex2
									{
										OFFSET -2.935219 -0.016853 0.287245
										CHANNELS 3 Xrotation Yrotation Zrotation
										JOINT mixamorig:RightHandIndex3
										{
											OFFSET -2.786827 -0.129890 0.255971
											CHANNELS 3 Xrotation Yrotation Zrotation
											JOINT mixamorig:RightHandIndex4
											{
												OFFSET -2.343559 0.168816 0.256164
												CHANNELS 3 Xrotation Yrotation Zrotation
												End Site
												{
													OFFSET -2.344208 0.169510 0.249690
												}
											}
										}
									}
								}
								JOINT mixamorig:RightHandMiddle1
								{
									OFFSET -7.274693 0.327965 0.656181
									CHANNELS 3 Xrotation Yrotation Zrotation
									JOINT mixamorig:RightHandMiddle2
									{
										OFFSET -3.309677 0.091591 0.032863
										CHANNELS 3 Xrotation Yrotation Zrotation
										JOINT mixamorig:RightHandMiddle3
										{
											OFFSET -3.186844 -0.122513 0.000971
											CHANNELS 3 Xrotation Yrotation Zrotation
											JOINT mixamorig:RightHandMiddle4
											{
												OFFSET -2.671951 -0.322540 -0.031001
												CHANNELS 3 Xrotation Yrotation Zrotation
												End Site
												{
													OFFSET -2.671928 -0.323486 -0.021820
												}
											}
										}
									}
								}
								JOINT mixamorig:RightHandRing1
								{
									OFFSET -7.453640 0.430428 -1.170334
									CHANNELS 3 Xrotation Yrotation Zrotation
									JOINT mixamorig:RightHandRing2
									{
										OFFSET -2.808174 0.165817 -0.117934
										CHANNELS 3 Xrotation Yrotation Zrotation
										JOINT mixamorig:RightHandRing3
										{
											OFFSET -2.730080 0.127754 -0.119542
											CHANNELS 3 Xrotation Yrotation Zrotation
											JOINT mixamorig:RightHandRing4
											{
												OFFSET -2.349426 0.078133 -0.107466
												CHANNELS 3 Xrotation Yrotation Zrotation
												End Site
												{
													OFFSET -2.349503 0.077988 -0.106043
												}
											}
										}
									}
								}
								JOINT mixamorig:RightHandPinky1
								{
									OFFSET -7.364456 0.463486 -2.604800
									CHANNELS 3 Xrotation Yrotation Zrotation
									JOINT mixamorig:RightHandPinky2
									{
										OFFSET -2.430134 0.174614 -0.251330
										CHANNELS 3 Xrotation Yrotation Zrotation
										JOINT mixamorig:RightHandPinky3
										{
											OFFSET -1.953583 0.007492 -0.220999
											CHANNELS 3 Xrotation Yrotation Zrotation
											JOINT mixamorig:RightHandPinky4
											{
												OFFSET -1.582039 0.276558 -0.139972
												CHANNELS 3 Xrotation Yrotation Zrotation
												End Site
												{
													OFFSET -1.581284 0.277252 -0.147002
												}
											}
										}
									}
								}
							}
						}
					}
				}
			}
		}
	}
	JOINT mixamorig:LeftUpLeg
	{
		OFFSET 6.620181 -8.816864 -0.447179
		CHANNELS 3 Xrotation Yrotation Zrotation
		JOINT mixamorig:LeftLeg
		{
			OFFSET 2.748989 -36.076775 0.650871
			CHANNELS 3 Xrotation Yrotation Zrotation
			JOINT mixamorig:LeftFoot
			{
				OFFSET 1.089303 -46.239017 1.019056
				CHANNELS 3 Xrotation Yrotation Zrotation
				JOINT mixamorig:LeftToeBase
				{
					OFFSET -0.371088 -10.380511 12.650617
					CHANNELS 3 Xrotation Yrotation Zrotation
					JOINT mixamorig:LeftToe_End
					{
						OFFSET -0.094684 -0.116785 6.663326
						CHANNELS 3 Xrotation Yrotation Zrotation
						End Site
						{
							OFFSET -0.094684 -0.116785 6.663326
						}
					}
				}
			}
		}
	}
	JOINT mixamorig:RightUpLeg
	{
		OFFSET -6.620174 -8.816818 -0.447182
		CHANNELS 3 Xrotation Yrotation Zrotation
		JOINT mixamorig:RightLeg
		{
			OFFSET -2.748991 -36.076790 0.753614
			CHANNELS 3 Xrotation Yrotation Zrotation
			JOINT mixamorig:RightFoot
			{
				OFFSET -1.089311 -46.239029 0.372114
				CHANNELS 3 Xrotation Yrotation Zrotation
				JOINT mixamorig:RightToeBase
				{
					OFFSET 0.371103 -10.380659 13.284531
					CHANNELS 3 Xrotation Yrotation Zrotation
					JOINT mixamorig:RightToe_End
					{
						OFFSET 0.094689 -0.116865 6.675873
						CHANNELS 3 Xrotation Yrotation Zrotation
						End Site
						{
							OFFSET 0.094687 -0.116865 6.675871
						}
					}
				}
			}
		}
	}
}
MOTION
Frames: 4
Frame Time: 0.016667
59.383934 98.020721 68.563889 -171.097591 389.219368 160.614303 9.880371 12.000381 8.725386 -1.762393 1.755742 -1.058475 -1.702859 1.764552 -1.136721 5.218631 -0.799930 2.510694 8.288655 -0.374391 -1.850433 0.000000 0.000000 -0.000000 -1.990185 7.306131 19.450798 1.639156 2.424234 -26.384959 -0.953350 -3.712335 -1.046680 10.615504 2.104550 -23.946165 2.768231 11.658212 4.592227 2.281557 -1.575466 -4.163180 -1.267161 -5.336441 -1.339418 0.000002 0.000004 0.000003 1.992094 3.911636 -17.173896 4.534274 6.304470 -31.863345 1.353717 2.707547 -12.489147 -0.000003 -0.000001 0.000000 0.781400 -0.706417 -20.003228 0.225451 3.041046 -11.081221 0.508874 3.769879 -20.100142 0.000002 -0.000000 0.000001 -0.209400 -3.603099 -25.855816 -0.728749 6.830479 -28.058887 -0.519822 2.255067 -8.832044 -0.000002 0.000001 -0.000000 0.390282 -1.928680 -20.380741 -1.189385 0.519221 -19.298699 -1.314096 3.535554 -16.623212 -0.000001 -0.000000 0.000000 0.197915 19.882305 10.379592 36.914382 31.294397 16.246956 -0.677330 2.098177 1.022226 -26.722693 -17.269848 43.246719 1.527796 -10.976605 -5.666885 3.431343 0.609144 5.067685 -2.245382 7.265000 0.847943 0.000002 0.000001 -0.000000 0.381092 -0.978476 11.751311 3.001549 -4.310088 21.518967 2.718841 -3.590349 20.839875 -0.000002 0.000002 -0.000001 0.529836 1.597446 13.084906 0.912705 -4.421696 20.100840 0.322644 -2.307114 9.427870 0.000003 -0.000001 -0.000001 0.003866 4.520981 14.908626 -0.244243 -5.002697 23.131771 -0.375134 -2.897968 13.315888 0.000001 -0.000001 -0.000001 -0.085491 6.451526 15.331558 -1.529201 -4.642337 19.832364 -1.820053 -4.713782 23.566835 0.000001 -0.000002 0.000004 -24.748786 15.102595 4.046159 24.274779 7.212087 -8.873628 9.047281 24.929752 13.476902 -25.607452 0.000029 0.000021 -0.000000 -0.000001 0.000001 1.618278 -2.191836 13.744686 30.122688 -3.804255 1.589616 -17.316196 21.380425 0.646165 -10.119528 0.000004 0.000018 -0.000000 0.000000 0.000000 
58.956272 98.328995 68.610374 -171.616125 387.715743 161.911328 10.635901 11.513158 8.694826 -1.763810 1.692139 -1.429812 -1.698895 1.690339 -1.507882 4.936328 -0.778942 2.604025 7.917952 -0.216566 -1.512619 0.000002 -0.000001 -0.000000 -1.576079 6.591372 17.104677 1.855690 1.568012 -28.119523 -1.227559 -5.048761 -1.074912 7.843501 -0.431602 -21.143867 2.768230 11.658215 4.592206 2.281562 -1.575472 -4.163176 -1.267143 -5.336458 -1.339415 -0.000003 0.000003 -0.000000 1.890422 3.775240 -16.476819 4.397661 6.197000 -31.146612 1.320782 2.655600 -12.238224 0.000001 -0.000002 0.000000 0.735919 -0.857137 -19.310608 0.210817 2.961794 -10.725088 0.492923 3.715278 -19.848598 0.000005 0.000000 0.000001 -0.219912 -3.765558 -25.164502 -0.750265 6.667699 -27.352389 -0.509373 2.198094 -8.582227 -0.000001 -0.000002 0.000000 0.362575 -2.068348 -19.758564 -1.170314 0.349266 -18.612054 -1.302687 3.473783 -16.374847 0.000001 -0.000000 -0.000000 0.204380 19.750826 10.438829 35.588257 32.990613 18.439504 -0.479491 1.127745 1.011213 -24.077803 -13.701855 41.875197 1.527806 -10.976593 -5.666887 3.431337 0.609153 5.067693 -2.245351 7.265002 0.847936 0.000001 0.000001 0.000000 0.366073 -0.931281 12.067909 2.940002 -4.251720 21.162206 2.766812 -3.639441 21.132445 -0.000002 0.000002 0.000001 0.545225 1.537244 13.375504 0.884010 -4.351633 19.744433 0.337019 -2.367551 9.719446 0.000002 0.000002 0.000003 0.004437 4.458079 15.199439 -0.255734 -4.927032 22.776738 -0.375850 -2.960775 13.606696 0.000001 -0.000003 0.000004 -0.059933 6.308066 15.602925 -1.515734 -4.560498 19.480832 -1.829157 -4.782591 23.855433 0.000003 -0.000000 0.000002 -28.035136 13.328804 6.276285 32.826497 5.260393 -10.164374 8.078865 15.600104 4.442097 -24.344903 -0.240139 4.855734 0.000000 -0.000000 -0.000000 1.608236 -3.252077 13.443783 29.639473 -3.973373 0.400283 -16.352171 20.188325 0.012621 -10.387758 0.000011 0.000020 -0.000000 0.000002 -0.000000 
58.570843 98.534218 68.543335 -172.092203 386.211872 163.298212 11.300196 10.968348 8.504906 -1.692150 1.628605 -1.821640 -1.623368 1.613023 -1.896996 4.734579 -0.778659 2.687014 7.399824 -0.249864 -0.956667 0.000000 -0.000001 0.000001 -1.166340 5.720838 14.723216 1.933377 0.840170 -30.309422 -1.656708 -7.126840 -1.131756 4.670084 -4.131346 -17.770574 2.768245 11.658207 4.592208 2.281551 -1.575456 -4.163182 -1.267159 -5.336455 -1.339442 0.000002 0.000002 0.000002 1.762649 3.598743 -15.584458 4.224714 6.056891 -30.229283 1.278951 2.588854 -11.916882 0.000001 -0.000000 0.000000 0.680312 -1.050987 -18.423599 0.192819 2.860172 -10.268968 0.472830 3.645236 -19.526502 0.000001 0.000001 -0.000000 -0.230519 -3.973829 -24.278874 -0.774875 6.458868 -26.447899 -0.495617 2.125173 -8.262249 -0.000001 -0.000002 0.000000 0.329297 -2.247676 -18.961652 -1.142890 0.131678 -17.731589 -1.287700 3.394756 -16.056745 0.000002 0.000000 -0.000001 0.175559 19.543355 10.614918 33.502686 34.862242 21.519816 -0.297114 0.232244 1.004025 -21.659327 -10.636239 39.086335 1.527793 -10.976613 -5.666895 3.431335 0.609143 5.067699 -2.245374 7.265002 0.847932 0.000002 0.000000 0.000001 0.299898 -0.765667 12.181464 2.839850 -4.155128 20.577024 2.778337 -3.651169 21.202685 -0.000001 -0.000000 0.000001 0.548928 1.522828 13.445226 0.837906 -4.236333 19.159792 0.340517 -2.382053 9.789428 -0.000002 -0.000000 -0.000000 0.004587 4.442991 15.269195 -0.273541 -4.802747 22.194363 -0.375969 -2.975855 13.676463 0.000001 0.000000 -0.000001 -0.003837 6.159350 15.639269 -1.492561 -4.426403 18.904108 -1.831291 -4.799102 23.924669 0.000000 0.000003 0.000001 -30.373076 11.389363 8.258556 39.722905 2.230676 -10.615513 8.357326 6.701705 -5.738830 -19.359538 -0.352439 5.854007 -0.000000 0.000000 -0.000000 1.265938 -4.637035 12.890961 29.965321 -3.701248 -0.804852 -15.555908 18.554861 -0.500637 -10.354922 0.000013 0.000023 -0.000000 0.000002 0.000000 
58.262833 98.646851 68.298637 -172.586586 385.212342 165.084730 11.858286 10.349395 8.079022 -1.562484 1.563987 -2.223619 -1.491536 1.532276 -2.294048 4.573122 -0.798210 2.729281 6.831327 -0.474440 -0.276193 0.000001 0.000000 -0.000001 -0.789503 4.787189 12.230850 1.905358 -0.056831 -32.639777 -2.183128 -9.646619 -1.222292 1.583232 -8.351948 -13.880735 2.768251 11.658196 4.592196 2.281556 -1.575469 -4.163180 -1.267153 -5.336441 -1.339423 0.000000 0.000000 -0.000003 1.605057 3.372725 -14.456744 4.009307 5.875762 -29.070064 1.226562 2.504132 -11.510571 -0.000001 0.000000 0.000001 0.614277 -1.297340 -17.302003 0.171221 2.731441 -9.692283 0.447983 3.556498 -19.119212 0.000001 0.000000 0.000001 -0.239327 -4.237402 -23.158540 -0.801205 6.194239 -25.304671 -0.477638 2.033079 -7.857565 -0.000004 -0.000000 0.000001 0.290800 -2.475114 -17.953851 -1.103357 -0.143302 -16.615897 -1.268118 3.294912 -15.654454 0.000001 -0.000001 0.000000 0.107023 19.264251 11.002848 30.907815 36.711181 25.211224 -0.149582 -0.492714 1.000310 -19.621612 -8.100730 34.780095 1.527801 -10.976602 -5.666909 3.431337 0.609148 5.067695 -2.245374 7.265016 0.847937 -0.000000 -0.000005 -0.000000 0.203435 -0.528209 12.147844 2.695193 -4.012085 19.721934 2.763876 -3.636461 21.114635 -0.000002 0.000002 -0.000001 0.544264 1.540912 13.357779 0.772625 -4.066881 18.305353 0.336128 -2.363867 9.701721 0.000001 -0.000002 0.000004 0.004373 4.461908 15.181699 -0.297290 -4.620710 21.343108 -0.375813 -2.956955 13.589018 0.000000 0.000002 0.000000 0.068869 6.015963 15.510871 -1.456238 -4.230762 18.061028 -1.828613 -4.778394 23.837850 0.000001 0.000004 -0.000002 -32.068281 10.175466 9.963597 45.387918 -2.842187 -10.719856 8.546873 4.644454 -11.809293 -17.372115 -0.368378 5.992206 0.000000 0.000000 0.000002 0.027960 -5.737063 11.534134 31.584991 -2.922697 -1.573066 -15.183142 16.011311 -0.311355 -11.069107 0.040504 -1.235880 0.000000 0.000001 -0.000000 
